<?xml version="1.0" encoding="utf-8" standalone="no"?>
<!DOCTYPE svg PUBLIC "-//W3C//DTD SVG 1.1//EN"
  "http://www.w3.org/Graphics/SVG/1.1/DTD/svg11.dtd">
<svg xmlns:xlink="http://www.w3.org/1999/xlink" width="684pt" height="568.8pt" viewBox="0 0 684 568.8" xmlns="http://www.w3.org/2000/svg" version="1.1">
 <metadata>
  <rdf:RDF xmlns:dc="http://purl.org/dc/elements/1.1/" xmlns:cc="http://creativecommons.org/ns#" xmlns:rdf="http://www.w3.org/1999/02/22-rdf-syntax-ns#">
   <cc:Work>
    <dc:type rdf:resource="http://purl.org/dc/dcmitype/StillImage"/>
    <dc:date>2024-08-25T13:05:32.227088</dc:date>
    <dc:format>image/svg+xml</dc:format>
    <dc:creator>
     <cc:Agent>
      <dc:title>Matplotlib v3.7.5, https://matplotlib.org/</dc:title>
     </cc:Agent>
    </dc:creator>
   </cc:Work>
  </rdf:RDF>
 </metadata>
 <defs>
  <style type="text/css">*{stroke-linejoin: round; stroke-linecap: butt}</style>
 </defs>
 <g id="figure_1">
  <g id="patch_1">
   <path d="M 0 568.8 
L 684 568.8 
L 684 0 
L 0 0 
z
" style="fill: #ffffff"/>
  </g>
  <g id="axes_1">
   <g id="patch_2">
    <path d="M 548.645903 382.968368 
Q 579.764472 378.19041 609.777958 373.582126 
" clip-path="url(#pdee19c94b4)" style="fill: none; stroke: #808080; stroke-linecap: round"/>
    <path d="M 605.520765 372.21234 
L 609.777958 373.582126 
L 606.127813 376.166008 
z
" clip-path="url(#pdee19c94b4)" style="fill: #808080; stroke: #808080; stroke-linecap: round"/>
   </g>
   <g id="patch_3">
    <path d="M 593.384931 416.96098 
Q 604.093953 398.026987 614.252557 380.066155 
" clip-path="url(#pdee19c94b4)" style="fill: none; stroke: #808080; stroke-linecap: round"/>
    <path d="M 610.542483 382.563223 
L 614.252557 380.066155 
L 614.024167 384.532455 
z
" clip-path="url(#pdee19c94b4)" style="fill: #808080; stroke: #808080; stroke-linecap: round"/>
   </g>
   <g id="patch_4">
    <path d="M 382.69799 370.578181 
Q 360.651949 358.950745 339.594827 347.844882 
" clip-path="url(#pdee19c94b4)" style="fill: none; stroke: #808080; stroke-linecap: round"/>
    <path d="M 342.199878 351.479949 
L 339.594827 347.844882 
L 344.065911 347.941882 
z
" clip-path="url(#pdee19c94b4)" style="fill: #808080; stroke: #808080; stroke-linecap: round"/>
   </g>
   <g id="patch_5">
    <path d="M 382.323393 377.137125 
Q 353.436431 388.388646 325.591267 399.234385 
" clip-path="url(#pdee19c94b4)" style="fill: none; stroke: #808080; stroke-linecap: round"/>
    <path d="M 330.044398 399.64624 
L 325.591267 399.234385 
L 328.592629 395.918993 
z
" clip-path="url(#pdee19c94b4)" style="fill: #808080; stroke: #808080; stroke-linecap: round"/>
   </g>
   <g id="patch_6">
    <path d="M 388.552026 366.446816 
Q 384.860821 341.127858 381.330907 316.91524 
" clip-path="url(#pdee19c94b4)" style="fill: none; stroke: #808080; stroke-linecap: round"/>
    <path d="M 379.928881 321.161923 
L 381.330907 316.91524 
L 383.887038 320.584871 
z
" clip-path="url(#pdee19c94b4)" style="fill: #808080; stroke: #808080; stroke-linecap: round"/>
   </g>
   <g id="patch_7">
    <path d="M 457.829578 362.720434 
Q 427.659704 367.833015 398.592148 372.758797 
" clip-path="url(#pdee19c94b4)" style="fill: none; stroke: #808080; stroke-linecap: round"/>
    <path d="M 402.870078 374.062373 
L 398.592148 372.758797 
L 402.201767 370.118598 
z
" clip-path="url(#pdee19c94b4)" style="fill: #808080; stroke: #808080; stroke-linecap: round"/>
   </g>
   <g id="patch_8">
    <path d="M 473.189234 363.691885 
Q 503.224949 372.784867 532.190591 381.553896 
" clip-path="url(#pdee19c94b4)" style="fill: none; stroke: #808080; stroke-linecap: round"/>
    <path d="M 528.941688 378.480684 
L 532.190591 381.553896 
L 527.78268 382.309091 
z
" clip-path="url(#pdee19c94b4)" style="fill: #808080; stroke: #808080; stroke-linecap: round"/>
   </g>
   <g id="patch_9">
    <path d="M 461.72019 354.520256 
Q 447.416775 329.284598 433.664659 305.021601 
" clip-path="url(#pdee19c94b4)" style="fill: none; stroke: #808080; stroke-linecap: round"/>
    <path d="M 433.897094 309.487692 
L 433.664659 305.021601 
L 437.376993 307.515307 
z
" clip-path="url(#pdee19c94b4)" style="fill: #808080; stroke: #808080; stroke-linecap: round"/>
   </g>
   <g id="patch_10">
    <path d="M 339.903428 283.150053 
Q 356.604773 293.486499 372.355428 303.234564 
" clip-path="url(#pdee19c94b4)" style="fill: none; stroke: #808080; stroke-linecap: round"/>
    <path d="M 370.006668 299.428868 
L 372.355428 303.234564 
L 367.901615 302.830154 
z
" clip-path="url(#pdee19c94b4)" style="fill: #808080; stroke: #808080; stroke-linecap: round"/>
   </g>
   <g id="patch_11">
    <path d="M 340.950415 280.460495 
Q 381.199791 288.080536 420.350645 295.492603 
" clip-path="url(#pdee19c94b4)" style="fill: none; stroke: #808080; stroke-linecap: round"/>
    <path d="M 416.792491 292.783444 
L 420.350645 295.492603 
L 416.048426 296.713631 
z
" clip-path="url(#pdee19c94b4)" style="fill: #808080; stroke: #808080; stroke-linecap: round"/>
   </g>
   <g id="patch_12">
    <path d="M 327.080575 273.956255 
Q 306.062441 256.614825 285.906699 239.984929 
" clip-path="url(#pdee19c94b4)" style="fill: none; stroke: #808080; stroke-linecap: round"/>
    <path d="M 287.719256 244.073282 
L 285.906699 239.984929 
L 290.264916 240.987895 
z
" clip-path="url(#pdee19c94b4)" style="fill: #808080; stroke: #808080; stroke-linecap: round"/>
   </g>
   <g id="patch_13">
    <path d="M 331.852236 271.19583 
Q 326.984998 242.649125 322.305673 215.204548 
" clip-path="url(#pdee19c94b4)" style="fill: none; stroke: #808080; stroke-linecap: round"/>
    <path d="M 321.006427 219.483796 
L 322.305673 215.204548 
L 324.949523 218.811494 
z
" clip-path="url(#pdee19c94b4)" style="fill: #808080; stroke: #808080; stroke-linecap: round"/>
   </g>
   <g id="patch_14">
    <path d="M 325.432767 280.563542 
Q 293.87688 286.973601 263.416651 293.161095 
" clip-path="url(#pdee19c94b4)" style="fill: none; stroke: #808080; stroke-linecap: round"/>
    <path d="M 267.73473 294.324795 
L 263.416651 293.161095 
L 266.938458 290.404852 
z
" clip-path="url(#pdee19c94b4)" style="fill: #808080; stroke: #808080; stroke-linecap: round"/>
   </g>
   <g id="patch_15">
    <path d="M 328.107894 285.048718 
Q 306.895866 310.383125 286.401581 334.860302 
" clip-path="url(#pdee19c94b4)" style="fill: none; stroke: #808080; stroke-linecap: round"/>
    <path d="M 290.502919 333.077318 
L 286.401581 334.860302 
L 287.435997 330.509442 
z
" clip-path="url(#pdee19c94b4)" style="fill: #808080; stroke: #808080; stroke-linecap: round"/>
   </g>
   <g id="patch_16">
    <path d="M 549.421605 455.995212 
Q 545.594461 424.007798 541.900137 393.130499 
" clip-path="url(#pdee19c94b4)" style="fill: none; stroke: #808080; stroke-linecap: round"/>
    <path d="M 540.389492 397.339769 
L 541.900137 393.130499 
L 544.361166 396.864577 
z
" clip-path="url(#pdee19c94b4)" style="fill: #808080; stroke: #808080; stroke-linecap: round"/>
   </g>
   <g id="patch_17">
    <path d="M 555.890685 458.196245 
Q 569.928788 443.843618 583.185127 430.29027 
" clip-path="url(#pdee19c94b4)" style="fill: none; stroke: #808080; stroke-linecap: round"/>
    <path d="M 578.958413 431.751396 
L 583.185127 430.29027 
L 581.817999 434.548317 
z
" clip-path="url(#pdee19c94b4)" style="fill: #808080; stroke: #808080; stroke-linecap: round"/>
   </g>
   <g id="patch_18">
    <path d="M 556.066327 469.318403 
Q 576.252739 488.669487 595.632058 507.246877 
" clip-path="url(#pdee19c94b4)" style="fill: none; stroke: #808080; stroke-linecap: round"/>
    <path d="M 594.128543 503.035055 
L 595.632058 507.246877 
L 591.360492 505.922596 
z
" clip-path="url(#pdee19c94b4)" style="fill: #808080; stroke: #808080; stroke-linecap: round"/>
   </g>
   <g id="patch_19">
    <path d="M 117.937007 119.534869 
Q 129.445937 103.109654 140.313294 87.600074 
" clip-path="url(#pdee19c94b4)" style="fill: none; stroke: #808080; stroke-linecap: round"/>
    <path d="M 136.38 89.728265 
L 140.313294 87.600074 
L 139.655871 92.023624 
z
" clip-path="url(#pdee19c94b4)" style="fill: #808080; stroke: #808080; stroke-linecap: round"/>
   </g>
   <g id="patch_20">
    <path d="M 116.724363 133.182944 
Q 127.596282 156.625202 137.997812 179.053194 
" clip-path="url(#pdee19c94b4)" style="fill: none; stroke: #808080; stroke-linecap: round"/>
    <path d="M 138.129265 174.58299 
L 137.997812 179.053194 
L 134.500521 176.265909 
z
" clip-path="url(#pdee19c94b4)" style="fill: #808080; stroke: #808080; stroke-linecap: round"/>
   </g>
   <g id="patch_21">
    <path d="M 107.525162 131.300698 
Q 92.081906 145.206628 77.469491 158.364425 
" clip-path="url(#pdee19c94b4)" style="fill: none; stroke: #808080; stroke-linecap: round"/>
    <path d="M 81.780299 157.174075 
L 77.469491 158.364425 
L 79.103696 154.201568 
z
" clip-path="url(#pdee19c94b4)" style="fill: #808080; stroke: #808080; stroke-linecap: round"/>
   </g>
   <g id="patch_22">
    <path d="M 184.034271 129.426391 
Q 152.663404 127.909948 122.409267 126.447486 
" clip-path="url(#pdee19c94b4)" style="fill: none; stroke: #808080; stroke-linecap: round"/>
    <path d="M 126.308036 128.638285 
L 122.409267 126.447486 
L 126.501168 124.64295 
z
" clip-path="url(#pdee19c94b4)" style="fill: #808080; stroke: #808080; stroke-linecap: round"/>
   </g>
   <g id="patch_23">
    <path d="M 186.523372 124.035233 
Q 168.707982 105.008047 151.656744 86.796992 
" clip-path="url(#pdee19c94b4)" style="fill: none; stroke: #808080; stroke-linecap: round"/>
    <path d="M 152.930724 91.08383 
L 151.656744 86.796992 
L 155.850602 88.349911 
z
" clip-path="url(#pdee19c94b4)" style="fill: #808080; stroke: #808080; stroke-linecap: round"/>
   </g>
   <g id="patch_24">
    <path d="M 72.751902 211.950781 
Q 103.549461 200.926372 133.294394 190.278766 
" clip-path="url(#pdee19c94b4)" style="fill: none; stroke: #808080; stroke-linecap: round"/>
    <path d="M 128.854363 189.743859 
L 133.294394 190.278766 
L 130.20245 193.509846 
z
" clip-path="url(#pdee19c94b4)" style="fill: #808080; stroke: #808080; stroke-linecap: round"/>
   </g>
   <g id="patch_25">
    <path d="M 66.159987 206.755267 
Q 68.033918 189.510074 69.78707 173.376373 
" clip-path="url(#pdee19c94b4)" style="fill: none; stroke: #808080; stroke-linecap: round"/>
    <path d="M 67.366662 177.136908 
L 69.78707 173.376373 
L 71.343253 177.56902 
z
" clip-path="url(#pdee19c94b4)" style="fill: #808080; stroke: #808080; stroke-linecap: round"/>
   </g>
   <g id="patch_26">
    <path d="M 134.262474 184.815913 
Q 106.273674 175.81913 79.349269 167.16449 
" clip-path="url(#pdee19c94b4)" style="fill: none; stroke: #808080; stroke-linecap: round"/>
    <path d="M 82.545326 170.292623 
L 79.349269 167.16449 
L 83.76941 166.484524 
z
" clip-path="url(#pdee19c94b4)" style="fill: #808080; stroke: #808080; stroke-linecap: round"/>
   </g>
   <g id="patch_27">
    <path d="M 329.73002 351.313897 
Q 324.39693 373.073079 319.329987 393.746367 
" clip-path="url(#pdee19c94b4)" style="fill: none; stroke: #808080; stroke-linecap: round"/>
    <path d="M 322.224694 390.337456 
L 319.329987 393.746367 
L 318.339683 389.385255 
z
" clip-path="url(#pdee19c94b4)" style="fill: #808080; stroke: #808080; stroke-linecap: round"/>
   </g>
   <g id="patch_28">
    <path d="M 331.803968 335.731613 
Q 332.396579 311.313915 332.962063 288.013921 
" clip-path="url(#pdee19c94b4)" style="fill: none; stroke: #808080; stroke-linecap: round"/>
    <path d="M 330.865602 291.964219 
L 332.962063 288.013921 
L 334.864424 292.061269 
z
" clip-path="url(#pdee19c94b4)" style="fill: #808080; stroke: #808080; stroke-linecap: round"/>
   </g>
   <g id="patch_29">
    <path d="M 323.714259 343.347599 
Q 306.111299 342.707713 289.625635 342.108441 
" clip-path="url(#pdee19c94b4)" style="fill: none; stroke: #808080; stroke-linecap: round"/>
    <path d="M 293.55034 344.252429 
L 289.625635 342.108441 
L 293.695649 340.255069 
z
" clip-path="url(#pdee19c94b4)" style="fill: #808080; stroke: #808080; stroke-linecap: round"/>
   </g>
   <g id="patch_30">
    <path d="M 428.712259 104.746802 
Q 404.440177 125.841634 381.011965 146.203059 
" clip-path="url(#pdee19c94b4)" style="fill: none; stroke: #808080; stroke-linecap: round"/>
    <path d="M 385.343041 145.088707 
L 381.011965 146.203059 
L 382.719128 142.069587 
z
" clip-path="url(#pdee19c94b4)" style="fill: #808080; stroke: #808080; stroke-linecap: round"/>
   </g>
   <g id="patch_31">
    <path d="M 383.087683 87.864708 
Q 385.704214 93.544107 387.852922 98.208056 
" clip-path="url(#pdee19c94b4)" style="fill: none; stroke: #808080; stroke-linecap: round"/>
    <path d="M 387.995678 93.738199 
L 387.852922 98.208056 
L 384.36269 95.411937 
z
" clip-path="url(#pdee19c94b4)" style="fill: #808080; stroke: #808080; stroke-linecap: round"/>
   </g>
   <g id="patch_32">
    <path d="M 387.183607 77.912224 
Q 413.684261 67.996452 439.137781 58.472485 
" clip-path="url(#pdee19c94b4)" style="fill: none; stroke: #808080; stroke-linecap: round"/>
    <path d="M 434.690559 58.001087 
L 439.137781 58.472485 
L 436.092329 61.747424 
z
" clip-path="url(#pdee19c94b4)" style="fill: #808080; stroke: #808080; stroke-linecap: round"/>
   </g>
   <g id="patch_33">
    <path d="M 386.286762 85.174703 
Q 412.587982 103.328537 437.969069 120.847268 
" clip-path="url(#pdee19c94b4)" style="fill: none; stroke: #808080; stroke-linecap: round"/>
    <path d="M 435.813204 116.929074 
L 437.969069 120.847268 
L 433.540995 120.221044 
z
" clip-path="url(#pdee19c94b4)" style="fill: #808080; stroke: #808080; stroke-linecap: round"/>
   </g>
   <g id="patch_34">
    <path d="M 387.254945 83.253229 
Q 407.229563 90.120905 426.146895 96.625065 
" clip-path="url(#pdee19c94b4)" style="fill: none; stroke: #808080; stroke-linecap: round"/>
    <path d="M 423.014508 93.433176 
L 426.146895 96.625065 
L 421.713952 97.215841 
z
" clip-path="url(#pdee19c94b4)" style="fill: #808080; stroke: #808080; stroke-linecap: round"/>
   </g>
   <g id="patch_35">
    <path d="M 379.163954 88.561773 
Q 376.990873 116.401865 374.904797 143.127313 
" clip-path="url(#pdee19c94b4)" style="fill: none; stroke: #808080; stroke-linecap: round"/>
    <path d="M 377.210008 139.295081 
L 374.904797 143.127313 
L 373.222138 138.983805 
z
" clip-path="url(#pdee19c94b4)" style="fill: #808080; stroke: #808080; stroke-linecap: round"/>
   </g>
   <g id="patch_36">
    <path d="M 437.97654 128.69634 
Q 409.80111 139.04538 382.675158 149.008938 
" clip-path="url(#pdee19c94b4)" style="fill: none; stroke: #808080; stroke-linecap: round"/>
    <path d="M 387.119454 149.507164 
L 382.675158 149.008938 
L 385.740316 145.752436 
z
" clip-path="url(#pdee19c94b4)" style="fill: #808080; stroke: #808080; stroke-linecap: round"/>
   </g>
   <g id="patch_37">
    <path d="M 442.421324 118.643349 
Q 440.03699 112.764612 438.072867 107.921937 
" clip-path="url(#pdee19c94b4)" style="fill: none; stroke: #808080; stroke-linecap: round"/>
    <path d="M 437.722901 112.380358 
L 438.072867 107.921937 
L 441.429625 110.876962 
z
" clip-path="url(#pdee19c94b4)" style="fill: #808080; stroke: #808080; stroke-linecap: round"/>
   </g>
   <g id="patch_38">
    <path d="M 441.754909 60.639193 
Q 419.612978 80.857286 398.296671 100.321492 
" clip-path="url(#pdee19c94b4)" style="fill: none; stroke: #808080; stroke-linecap: round"/>
    <path d="M 402.599105 99.101222 
L 398.296671 100.321492 
L 399.901915 96.147382 
z
" clip-path="url(#pdee19c94b4)" style="fill: #808080; stroke: #808080; stroke-linecap: round"/>
   </g>
   <g id="patch_39">
    <path d="M 445.378614 62.895689 
Q 441.136562 77.434474 437.207666 90.899977 
" clip-path="url(#pdee19c94b4)" style="fill: none; stroke: #808080; stroke-linecap: round"/>
    <path d="M 440.247993 87.62028 
L 437.207666 90.899977 
L 436.408105 86.499898 
z
" clip-path="url(#pdee19c94b4)" style="fill: #808080; stroke: #808080; stroke-linecap: round"/>
   </g>
   <g id="patch_40">
    <path d="M 447.346232 63.214672 
Q 446.492897 90.642258 445.674329 116.95235 
" clip-path="url(#pdee19c94b4)" style="fill: none; stroke: #808080; stroke-linecap: round"/>
    <path d="M 447.797751 113.016479 
L 445.674329 116.95235 
L 443.799685 112.89209 
z
" clip-path="url(#pdee19c94b4)" style="fill: #808080; stroke: #808080; stroke-linecap: round"/>
   </g>
   <g id="patch_41">
    <path d="M 368.650877 157.753762 
Q 347.493949 179.219151 327.121847 199.88827 
" clip-path="url(#pdee19c94b4)" style="fill: none; stroke: #808080; stroke-linecap: round"/>
    <path d="M 331.354142 198.44339 
L 327.121847 199.88827 
L 328.50532 195.635506 
z
" clip-path="url(#pdee19c94b4)" style="fill: #808080; stroke: #808080; stroke-linecap: round"/>
   </g>
   <g id="patch_42">
    <path d="M 399.056652 109.110403 
Q 418.510353 116.189396 436.913419 122.886074 
" clip-path="url(#pdee19c94b4)" style="fill: none; stroke: #808080; stroke-linecap: round"/>
    <path d="M 433.838457 119.638828 
L 436.913419 122.886074 
L 432.470645 123.397696 
z
" clip-path="url(#pdee19c94b4)" style="fill: #808080; stroke: #808080; stroke-linecap: round"/>
   </g>
   <g id="patch_43">
    <path d="M 399.437327 105.166257 
Q 413.154948 102.983909 425.768421 100.97722 
" clip-path="url(#pdee19c94b4)" style="fill: none; stroke: #808080; stroke-linecap: round"/>
    <path d="M 421.50387 99.63052 
L 425.768421 100.97722 
L 422.13233 103.580841 
z
" clip-path="url(#pdee19c94b4)" style="fill: #808080; stroke: #808080; stroke-linecap: round"/>
   </g>
   <g id="patch_44">
    <path d="M 388.815113 113.793552 
Q 382.916763 129.264616 377.4167 143.690994 
" clip-path="url(#pdee19c94b4)" style="fill: none; stroke: #808080; stroke-linecap: round"/>
    <path d="M 380.710445 140.665891 
L 377.4167 143.690994 
L 376.972864 139.240936 
z
" clip-path="url(#pdee19c94b4)" style="fill: #808080; stroke: #808080; stroke-linecap: round"/>
   </g>
   <g id="patch_45">
    <path d="M 222.446866 186.785298 
Q 186.070437 186.988824 150.812026 187.186095 
" clip-path="url(#pdee19c94b4)" style="fill: none; stroke: #808080; stroke-linecap: round"/>
    <path d="M 154.823153 189.163684 
L 150.812026 187.186095 
L 154.800773 185.163747 
z
" clip-path="url(#pdee19c94b4)" style="fill: #808080; stroke: #808080; stroke-linecap: round"/>
   </g>
   <g id="patch_46">
    <path d="M 225.93131 180.190846 
Q 211.141198 158.275965 196.976525 137.287812 
" clip-path="url(#pdee19c94b4)" style="fill: none; stroke: #808080; stroke-linecap: round"/>
    <path d="M 197.556381 141.722196 
L 196.976525 137.287812 
L 200.871947 139.484558 
z
" clip-path="url(#pdee19c94b4)" style="fill: #808080; stroke: #808080; stroke-linecap: round"/>
   </g>
   <g id="patch_47">
    <path d="M 485.378884 483.114368 
Q 514.08039 474.605436 541.709977 466.41429 
" clip-path="url(#pdee19c94b4)" style="fill: none; stroke: #808080; stroke-linecap: round"/>
    <path d="M 537.306488 465.633721 
L 541.709977 466.41429 
L 538.443429 469.468739 
z
" clip-path="url(#pdee19c94b4)" style="fill: #808080; stroke: #808080; stroke-linecap: round"/>
   </g>
   <g id="patch_48">
    <path d="M 493.640213 427.834209 
Q 486.77017 452.786167 480.196912 476.660201 
" clip-path="url(#pdee19c94b4)" style="fill: none; stroke: #808080; stroke-linecap: round"/>
    <path d="M 483.186972 473.334612 
L 480.196912 476.660201 
L 479.330476 472.2728 
z
" clip-path="url(#pdee19c94b4)" style="fill: #808080; stroke: #808080; stroke-linecap: round"/>
   </g>
   <g id="patch_49">
    <path d="M 492.134025 413.172345 
Q 480.678873 390.804892 469.733358 369.432563 
" clip-path="url(#pdee19c94b4)" style="fill: none; stroke: #808080; stroke-linecap: round"/>
    <path d="M 469.776562 373.90449 
L 469.733358 369.432563 
L 473.336822 372.081156 
z
" clip-path="url(#pdee19c94b4)" style="fill: #808080; stroke: #808080; stroke-linecap: round"/>
   </g>
   <g id="patch_50">
    <path d="M 503.63873 420.517158 
Q 542.61673 422.025571 580.477533 423.490749 
" clip-path="url(#pdee19c94b4)" style="fill: none; stroke: #808080; stroke-linecap: round"/>
    <path d="M 576.557865 421.337564 
L 580.477533 423.490749 
L 576.403184 425.334572 
z
" clip-path="url(#pdee19c94b4)" style="fill: #808080; stroke: #808080; stroke-linecap: round"/>
   </g>
   <g id="patch_51">
    <path d="M 314.213639 210.702619 
Q 299.86887 220.278481 286.453983 229.2336 
" clip-path="url(#pdee19c94b4)" style="fill: none; stroke: #808080; stroke-linecap: round"/>
    <path d="M 290.891244 228.676184 
L 286.453983 229.2336 
L 288.670408 225.349341 
z
" clip-path="url(#pdee19c94b4)" style="fill: #808080; stroke: #808080; stroke-linecap: round"/>
   </g>
   <g id="patch_52">
    <path d="M 313.064559 204.641021 
Q 275.57154 196.527101 239.171259 188.649662 
" clip-path="url(#pdee19c94b4)" style="fill: none; stroke: #808080; stroke-linecap: round"/>
    <path d="M 242.657728 191.450472 
L 239.171259 188.649662 
L 243.503788 187.540973 
z
" clip-path="url(#pdee19c94b4)" style="fill: #808080; stroke: #808080; stroke-linecap: round"/>
   </g>
   <g id="patch_53">
    <path d="M 273.292133 228.71486 
Q 254.648654 210.490949 236.80469 193.048559 
" clip-path="url(#pdee19c94b4)" style="fill: none; stroke: #808080; stroke-linecap: round"/>
    <path d="M 238.267092 197.274832 
L 236.80469 193.048559 
L 241.063149 194.414401 
z
" clip-path="url(#pdee19c94b4)" style="fill: #808080; stroke: #808080; stroke-linecap: round"/>
   </g>
   <g id="patch_54">
    <path d="M 407.69911 504.102357 
Q 438.931495 495.752513 469.083779 487.69143 
" clip-path="url(#pdee19c94b4)" style="fill: none; stroke: #808080; stroke-linecap: round"/>
    <path d="M 464.702943 486.792387 
L 469.083779 487.69143 
L 465.736044 490.656673 
z
" clip-path="url(#pdee19c94b4)" style="fill: #808080; stroke: #808080; stroke-linecap: round"/>
   </g>
   <g id="patch_55">
    <path d="M 311.801636 408.30139 
Q 293.548966 427.948837 276.057256 446.777175 
" clip-path="url(#pdee19c94b4)" style="fill: none; stroke: #808080; stroke-linecap: round"/>
    <path d="M 280.245016 445.207889 
L 276.057256 446.777175 
L 277.314483 442.485395 
z
" clip-path="url(#pdee19c94b4)" style="fill: #808080; stroke: #808080; stroke-linecap: round"/>
   </g>
   <g id="patch_56">
    <path d="M 319.006167 410.198828 
Q 324.856233 434.859007 330.448232 458.431343 
" clip-path="url(#pdee19c94b4)" style="fill: none; stroke: #808080; stroke-linecap: round"/>
    <path d="M 331.47094 454.077715 
L 330.448232 458.431343 
L 327.578955 455.001 
z
" clip-path="url(#pdee19c94b4)" style="fill: #808080; stroke: #808080; stroke-linecap: round"/>
   </g>
   <g id="patch_57">
    <path d="M 313.103613 395.737784 
Q 298.895415 372.146342 285.264032 349.512651 
" clip-path="url(#pdee19c94b4)" style="fill: none; stroke: #808080; stroke-linecap: round"/>
    <path d="M 285.614434 353.971038 
L 285.264032 349.512651 
L 289.040983 351.907362 
z
" clip-path="url(#pdee19c94b4)" style="fill: #808080; stroke: #808080; stroke-linecap: round"/>
   </g>
   <g id="patch_58">
    <path d="M 339.378027 471.159914 
Q 366.297113 486.677605 392.247579 501.636929 
" clip-path="url(#pdee19c94b4)" style="fill: none; stroke: #808080; stroke-linecap: round"/>
    <path d="M 389.780976 497.906531 
L 392.247579 501.636929 
L 387.783299 501.371972 
z
" clip-path="url(#pdee19c94b4)" style="fill: #808080; stroke: #808080; stroke-linecap: round"/>
   </g>
   <g id="patch_59">
    <path d="M 277.630974 455.092652 
Q 301.222732 460.301071 323.722745 465.268463 
" clip-path="url(#pdee19c94b4)" style="fill: none; stroke: #808080; stroke-linecap: round"/>
    <path d="M 320.247964 462.453165 
L 323.722745 465.268463 
L 319.385638 466.359108 
z
" clip-path="url(#pdee19c94b4)" style="fill: #808080; stroke: #808080; stroke-linecap: round"/>
   </g>
   <g id="PathCollection_1">
    <defs>
     <path id="C0_0_496ec7b37b" d="M 0 7.905694 
C 2.096615 7.905694 4.10764 7.0727 5.59017 5.59017 
C 7.0727 4.10764 7.905694 2.096615 7.905694 -0 
C 7.905694 -2.096615 7.0727 -4.10764 5.59017 -5.59017 
C 4.10764 -7.0727 2.096615 -7.905694 0 -7.905694 
C -2.096615 -7.905694 -4.10764 -7.0727 -5.59017 -5.59017 
C -7.0727 -4.10764 -7.905694 -2.096615 -7.905694 0 
C -7.905694 2.096615 -7.0727 4.10764 -5.59017 5.59017 
C -4.10764 7.0727 -2.096615 7.905694 0 7.905694 
z
"/>
    </defs>
    <g clip-path="url(#pdee19c94b4)">
     <use xlink:href="#C0_0_496ec7b37b" x="540.827905" y="384.168747" style="fill: #06918a; stroke: #06918a"/>
    </g>
    <g clip-path="url(#pdee19c94b4)">
     <use xlink:href="#C0_0_496ec7b37b" x="589.494349" y="423.839691" style="fill: #06918a; stroke: #06918a"/>
    </g>
    <g clip-path="url(#pdee19c94b4)">
     <use xlink:href="#C0_0_496ec7b37b" x="389.692116" y="374.266995" style="fill: #dbb500; stroke: #dbb500"/>
    </g>
    <g clip-path="url(#pdee19c94b4)">
     <use xlink:href="#C0_0_496ec7b37b" x="465.619762" y="361.400311" style="fill: #06918a; stroke: #06918a"/>
    </g>
    <g clip-path="url(#pdee19c94b4)">
     <use xlink:href="#C0_0_496ec7b37b" x="618.694215" y="372.21312" style="fill: #06918a; stroke: #06918a"/>
    </g>
    <g clip-path="url(#pdee19c94b4)">
     <use xlink:href="#C0_0_496ec7b37b" x="449.041193" y="206.608508" style="fill: #06918a; stroke: #06918a"/>
    </g>
    <g clip-path="url(#pdee19c94b4)">
     <use xlink:href="#C0_0_496ec7b37b" x="254.575281" y="294.957074" style="fill: #06918a; stroke: #06918a"/>
    </g>
    <g clip-path="url(#pdee19c94b4)">
     <use xlink:href="#C0_0_496ec7b37b" x="429.214864" y="297.170783" style="fill: #06918a; stroke: #06918a"/>
    </g>
    <g clip-path="url(#pdee19c94b4)">
     <use xlink:href="#C0_0_496ec7b37b" x="602.145625" y="513.490909" style="fill: #06918a; stroke: #06918a"/>
    </g>
    <g clip-path="url(#pdee19c94b4)">
     <use xlink:href="#C0_0_496ec7b37b" x="333.181081" y="278.989599" style="fill: #db0000; stroke: #db0000"/>
    </g>
    <g clip-path="url(#pdee19c94b4)">
     <use xlink:href="#C0_0_496ec7b37b" x="550.361332" y="463.849484" style="fill: #06918a; stroke: #06918a"/>
    </g>
    <g clip-path="url(#pdee19c94b4)">
     <use xlink:href="#C0_0_496ec7b37b" x="113.398624" y="126.011919" style="fill: #70ca70; stroke: #70ca70"/>
    </g>
    <g clip-path="url(#pdee19c94b4)">
     <use xlink:href="#C0_0_496ec7b37b" x="191.928477" y="129.80799" style="fill: #70ca70; stroke: #70ca70"/>
    </g>
    <g clip-path="url(#pdee19c94b4)">
     <use xlink:href="#C0_0_496ec7b37b" x="65.305785" y="214.616221" style="fill: #076c07; stroke: #076c07"/>
    </g>
    <g clip-path="url(#pdee19c94b4)">
     <use xlink:href="#C0_0_496ec7b37b" x="145.490496" y="80.211319" style="fill: #076c07; stroke: #076c07"/>
    </g>
    <g clip-path="url(#pdee19c94b4)">
     <use xlink:href="#C0_0_496ec7b37b" x="70.762023" y="164.404186" style="fill: #076c07; stroke: #076c07"/>
    </g>
    <g clip-path="url(#pdee19c94b4)">
     <use xlink:href="#C0_0_496ec7b37b" x="141.793046" y="187.236556" style="fill: #076c07; stroke: #076c07"/>
    </g>
    <g clip-path="url(#pdee19c94b4)">
     <use xlink:href="#C0_0_496ec7b37b" x="331.612163" y="343.634697" style="fill: #db0000; stroke: #db0000"/>
    </g>
    <g clip-path="url(#pdee19c94b4)">
     <use xlink:href="#C0_0_496ec7b37b" x="380.028779" y="307.983593" style="fill: #06918a; stroke: #06918a"/>
    </g>
    <g clip-path="url(#pdee19c94b4)">
     <use xlink:href="#C0_0_496ec7b37b" x="434.681095" y="99.559295" style="fill: #dbb500; stroke: #dbb500"/>
    </g>
    <g clip-path="url(#pdee19c94b4)">
     <use xlink:href="#C0_0_496ec7b37b" x="379.778951" y="80.682831" style="fill: #dbb500; stroke: #dbb500"/>
    </g>
    <g clip-path="url(#pdee19c94b4)">
     <use xlink:href="#C0_0_496ec7b37b" x="445.393708" y="125.97196" style="fill: #dbb500; stroke: #dbb500"/>
    </g>
    <g clip-path="url(#pdee19c94b4)">
     <use xlink:href="#C0_0_496ec7b37b" x="447.592192" y="55.309091" style="fill: #dbb500; stroke: #dbb500"/>
    </g>
    <g clip-path="url(#pdee19c94b4)">
     <use xlink:href="#C0_0_496ec7b37b" x="374.202796" y="152.120898" style="fill: #dbb500; stroke: #dbb500"/>
    </g>
    <g clip-path="url(#pdee19c94b4)">
     <use xlink:href="#C0_0_496ec7b37b" x="391.630779" y="106.408207" style="fill: #dbb500; stroke: #dbb500"/>
    </g>
    <g clip-path="url(#pdee19c94b4)">
     <use xlink:href="#C0_0_496ec7b37b" x="230.351983" y="186.741069" style="fill: #70ca70; stroke: #70ca70"/>
    </g>
    <g clip-path="url(#pdee19c94b4)">
     <use xlink:href="#C0_0_496ec7b37b" x="477.801363" y="485.360821" style="fill: #06918a; stroke: #06918a"/>
    </g>
    <g clip-path="url(#pdee19c94b4)">
     <use xlink:href="#C0_0_496ec7b37b" x="495.738994" y="420.211446" style="fill: #06918a; stroke: #06918a"/>
    </g>
    <g clip-path="url(#pdee19c94b4)">
     <use xlink:href="#C0_0_496ec7b37b" x="320.789625" y="206.312814" style="fill: #076c07; stroke: #076c07"/>
    </g>
    <g clip-path="url(#pdee19c94b4)">
     <use xlink:href="#C0_0_496ec7b37b" x="278.948475" y="234.243908" style="fill: #076c07; stroke: #076c07"/>
    </g>
    <g clip-path="url(#pdee19c94b4)">
     <use xlink:href="#C0_0_496ec7b37b" x="280.607331" y="341.780616" style="fill: #70ca70; stroke: #70ca70"/>
    </g>
    <g clip-path="url(#pdee19c94b4)">
     <use xlink:href="#C0_0_496ec7b37b" x="400.064963" y="506.143313" style="fill: #70ca70; stroke: #70ca70"/>
    </g>
    <g clip-path="url(#pdee19c94b4)">
     <use xlink:href="#C0_0_496ec7b37b" x="317.182112" y="402.509766" style="fill: #076c07; stroke: #076c07"/>
    </g>
    <g clip-path="url(#pdee19c94b4)">
     <use xlink:href="#C0_0_496ec7b37b" x="332.531529" y="467.213203" style="fill: #076c07; stroke: #076c07"/>
    </g>
    <g clip-path="url(#pdee19c94b4)">
     <use xlink:href="#C0_0_496ec7b37b" x="269.914704" y="453.38911" style="fill: #076c07; stroke: #076c07"/>
    </g>
   </g>
   <g id="text_1">
    <g clip-path="url(#pdee19c94b4)">
     <!-- 0 -->
     <g style="fill: #ffffff" transform="translate(537.696889 386.652185) scale(0.09 -0.09)">
      <defs>
       <path id="DejaVuSans-Bold-30" d="M 2944 2338 
Q 2944 3213 2780 3570 
Q 2616 3928 2228 3928 
Q 1841 3928 1675 3570 
Q 1509 3213 1509 2338 
Q 1509 1453 1675 1090 
Q 1841 728 2228 728 
Q 2613 728 2778 1090 
Q 2944 1453 2944 2338 
z
M 4147 2328 
Q 4147 1169 3647 539 
Q 3147 -91 2228 -91 
Q 1306 -91 806 539 
Q 306 1169 306 2328 
Q 306 3491 806 4120 
Q 1306 4750 2228 4750 
Q 3147 4750 3647 4120 
Q 4147 3491 4147 2328 
z
" transform="scale(0.015625)"/>
      </defs>
      <use xlink:href="#DejaVuSans-Bold-30"/>
     </g>
    </g>
   </g>
   <g id="text_2">
    <g clip-path="url(#pdee19c94b4)">
     <!-- 1 -->
     <g style="fill: #ffffff" transform="translate(586.363333 426.323128) scale(0.09 -0.09)">
      <defs>
       <path id="DejaVuSans-Bold-31" d="M 750 831 
L 1813 831 
L 1813 3847 
L 722 3622 
L 722 4441 
L 1806 4666 
L 2950 4666 
L 2950 831 
L 4013 831 
L 4013 0 
L 750 0 
L 750 831 
z
" transform="scale(0.015625)"/>
      </defs>
      <use xlink:href="#DejaVuSans-Bold-31"/>
     </g>
    </g>
   </g>
   <g id="text_3">
    <g clip-path="url(#pdee19c94b4)">
     <!-- 2 -->
     <g style="fill: #ffffff" transform="translate(386.5611 376.750432) scale(0.09 -0.09)">
      <defs>
       <path id="DejaVuSans-Bold-32" d="M 1844 884 
L 3897 884 
L 3897 0 
L 506 0 
L 506 884 
L 2209 2388 
Q 2438 2594 2547 2791 
Q 2656 2988 2656 3200 
Q 2656 3528 2436 3728 
Q 2216 3928 1850 3928 
Q 1569 3928 1234 3808 
Q 900 3688 519 3450 
L 519 4475 
Q 925 4609 1322 4679 
Q 1719 4750 2100 4750 
Q 2938 4750 3402 4381 
Q 3866 4013 3866 3353 
Q 3866 2972 3669 2642 
Q 3472 2313 2841 1759 
L 1844 884 
z
" transform="scale(0.015625)"/>
      </defs>
      <use xlink:href="#DejaVuSans-Bold-32"/>
     </g>
    </g>
   </g>
   <g id="text_4">
    <g clip-path="url(#pdee19c94b4)">
     <!-- 3 -->
     <g style="fill: #ffffff" transform="translate(462.488747 363.883748) scale(0.09 -0.09)">
      <defs>
       <path id="DejaVuSans-Bold-33" d="M 2981 2516 
Q 3453 2394 3698 2092 
Q 3944 1791 3944 1325 
Q 3944 631 3412 270 
Q 2881 -91 1863 -91 
Q 1503 -91 1142 -33 
Q 781 25 428 141 
L 428 1069 
Q 766 900 1098 814 
Q 1431 728 1753 728 
Q 2231 728 2486 893 
Q 2741 1059 2741 1369 
Q 2741 1688 2480 1852 
Q 2219 2016 1709 2016 
L 1228 2016 
L 1228 2791 
L 1734 2791 
Q 2188 2791 2409 2933 
Q 2631 3075 2631 3366 
Q 2631 3634 2415 3781 
Q 2200 3928 1806 3928 
Q 1516 3928 1219 3862 
Q 922 3797 628 3669 
L 628 4550 
Q 984 4650 1334 4700 
Q 1684 4750 2022 4750 
Q 2931 4750 3382 4451 
Q 3834 4153 3834 3553 
Q 3834 3144 3618 2883 
Q 3403 2622 2981 2516 
z
" transform="scale(0.015625)"/>
      </defs>
      <use xlink:href="#DejaVuSans-Bold-33"/>
     </g>
    </g>
   </g>
   <g id="text_5">
    <g clip-path="url(#pdee19c94b4)">
     <!-- 4 -->
     <g style="fill: #ffffff" transform="translate(615.563199 374.696558) scale(0.09 -0.09)">
      <defs>
       <path id="DejaVuSans-Bold-34" d="M 2356 3675 
L 1038 1722 
L 2356 1722 
L 2356 3675 
z
M 2156 4666 
L 3494 4666 
L 3494 1722 
L 4159 1722 
L 4159 850 
L 3494 850 
L 3494 0 
L 2356 0 
L 2356 850 
L 288 850 
L 288 1881 
L 2156 4666 
z
" transform="scale(0.015625)"/>
      </defs>
      <use xlink:href="#DejaVuSans-Bold-34"/>
     </g>
    </g>
   </g>
   <g id="text_6">
    <g clip-path="url(#pdee19c94b4)">
     <!-- 5 -->
     <g style="fill: #ffffff" transform="translate(445.910178 209.091946) scale(0.09 -0.09)">
      <defs>
       <path id="DejaVuSans-Bold-35" d="M 678 4666 
L 3669 4666 
L 3669 3781 
L 1638 3781 
L 1638 3059 
Q 1775 3097 1914 3117 
Q 2053 3138 2203 3138 
Q 3056 3138 3531 2711 
Q 4006 2284 4006 1522 
Q 4006 766 3489 337 
Q 2972 -91 2053 -91 
Q 1656 -91 1267 -14 
Q 878 63 494 219 
L 494 1166 
Q 875 947 1217 837 
Q 1559 728 1863 728 
Q 2300 728 2551 942 
Q 2803 1156 2803 1522 
Q 2803 1891 2551 2103 
Q 2300 2316 1863 2316 
Q 1603 2316 1309 2248 
Q 1016 2181 678 2041 
L 678 4666 
z
" transform="scale(0.015625)"/>
      </defs>
      <use xlink:href="#DejaVuSans-Bold-35"/>
     </g>
    </g>
   </g>
   <g id="text_7">
    <g clip-path="url(#pdee19c94b4)">
     <!-- 6 -->
     <g style="fill: #ffffff" transform="translate(251.444265 297.440512) scale(0.09 -0.09)">
      <defs>
       <path id="DejaVuSans-Bold-36" d="M 2316 2303 
Q 2000 2303 1842 2098 
Q 1684 1894 1684 1484 
Q 1684 1075 1842 870 
Q 2000 666 2316 666 
Q 2634 666 2792 870 
Q 2950 1075 2950 1484 
Q 2950 1894 2792 2098 
Q 2634 2303 2316 2303 
z
M 3803 4544 
L 3803 3681 
Q 3506 3822 3243 3889 
Q 2981 3956 2731 3956 
Q 2194 3956 1894 3657 
Q 1594 3359 1544 2772 
Q 1750 2925 1990 3001 
Q 2231 3078 2516 3078 
Q 3231 3078 3670 2659 
Q 4109 2241 4109 1563 
Q 4109 813 3618 361 
Q 3128 -91 2303 -91 
Q 1394 -91 895 523 
Q 397 1138 397 2266 
Q 397 3422 980 4083 
Q 1563 4744 2578 4744 
Q 2900 4744 3203 4694 
Q 3506 4644 3803 4544 
z
" transform="scale(0.015625)"/>
      </defs>
      <use xlink:href="#DejaVuSans-Bold-36"/>
     </g>
    </g>
   </g>
   <g id="text_8">
    <g clip-path="url(#pdee19c94b4)">
     <!-- 7 -->
     <g style="fill: #ffffff" transform="translate(426.083848 299.654221) scale(0.09 -0.09)">
      <defs>
       <path id="DejaVuSans-Bold-37" d="M 428 4666 
L 3944 4666 
L 3944 3988 
L 2125 0 
L 953 0 
L 2675 3781 
L 428 3781 
L 428 4666 
z
" transform="scale(0.015625)"/>
      </defs>
      <use xlink:href="#DejaVuSans-Bold-37"/>
     </g>
    </g>
   </g>
   <g id="text_9">
    <g clip-path="url(#pdee19c94b4)">
     <!-- 8 -->
     <g style="fill: #ffffff" transform="translate(599.01461 515.974347) scale(0.09 -0.09)">
      <defs>
       <path id="DejaVuSans-Bold-38" d="M 2228 2088 
Q 1891 2088 1709 1903 
Q 1528 1719 1528 1375 
Q 1528 1031 1709 848 
Q 1891 666 2228 666 
Q 2563 666 2741 848 
Q 2919 1031 2919 1375 
Q 2919 1722 2741 1905 
Q 2563 2088 2228 2088 
z
M 1350 2484 
Q 925 2613 709 2878 
Q 494 3144 494 3541 
Q 494 4131 934 4440 
Q 1375 4750 2228 4750 
Q 3075 4750 3515 4442 
Q 3956 4134 3956 3541 
Q 3956 3144 3739 2878 
Q 3522 2613 3097 2484 
Q 3572 2353 3814 2058 
Q 4056 1763 4056 1313 
Q 4056 619 3595 264 
Q 3134 -91 2228 -91 
Q 1319 -91 855 264 
Q 391 619 391 1313 
Q 391 1763 633 2058 
Q 875 2353 1350 2484 
z
M 1631 3419 
Q 1631 3141 1786 2991 
Q 1941 2841 2228 2841 
Q 2509 2841 2662 2991 
Q 2816 3141 2816 3419 
Q 2816 3697 2662 3845 
Q 2509 3994 2228 3994 
Q 1941 3994 1786 3844 
Q 1631 3694 1631 3419 
z
" transform="scale(0.015625)"/>
      </defs>
      <use xlink:href="#DejaVuSans-Bold-38"/>
     </g>
    </g>
   </g>
   <g id="text_10">
    <g clip-path="url(#pdee19c94b4)">
     <!-- 9 -->
     <g style="fill: #ffffff" transform="translate(330.050065 281.473037) scale(0.09 -0.09)">
      <defs>
       <path id="DejaVuSans-Bold-39" d="M 641 103 
L 641 966 
Q 928 831 1190 764 
Q 1453 697 1709 697 
Q 2247 697 2547 995 
Q 2847 1294 2900 1881 
Q 2688 1725 2447 1647 
Q 2206 1569 1925 1569 
Q 1209 1569 770 1986 
Q 331 2403 331 3084 
Q 331 3838 820 4291 
Q 1309 4744 2131 4744 
Q 3044 4744 3544 4128 
Q 4044 3513 4044 2388 
Q 4044 1231 3459 570 
Q 2875 -91 1856 -91 
Q 1528 -91 1228 -42 
Q 928 6 641 103 
z
M 2125 2350 
Q 2441 2350 2600 2554 
Q 2759 2759 2759 3169 
Q 2759 3575 2600 3781 
Q 2441 3988 2125 3988 
Q 1809 3988 1650 3781 
Q 1491 3575 1491 3169 
Q 1491 2759 1650 2554 
Q 1809 2350 2125 2350 
z
" transform="scale(0.015625)"/>
      </defs>
      <use xlink:href="#DejaVuSans-Bold-39"/>
     </g>
    </g>
   </g>
   <g id="text_11">
    <g clip-path="url(#pdee19c94b4)">
     <!-- 10 -->
     <g style="fill: #ffffff" transform="translate(544.0993 466.332922) scale(0.09 -0.09)">
      <use xlink:href="#DejaVuSans-Bold-31"/>
      <use xlink:href="#DejaVuSans-Bold-30" x="69.580078"/>
     </g>
    </g>
   </g>
   <g id="text_12">
    <g clip-path="url(#pdee19c94b4)">
     <!-- 11 -->
     <g style="fill: #ffffff" transform="translate(107.136593 128.495357) scale(0.09 -0.09)">
      <use xlink:href="#DejaVuSans-Bold-31"/>
      <use xlink:href="#DejaVuSans-Bold-31" x="69.580078"/>
     </g>
    </g>
   </g>
   <g id="text_13">
    <g clip-path="url(#pdee19c94b4)">
     <!-- 12 -->
     <g style="fill: #ffffff" transform="translate(185.666445 132.291428) scale(0.09 -0.09)">
      <use xlink:href="#DejaVuSans-Bold-31"/>
      <use xlink:href="#DejaVuSans-Bold-32" x="69.580078"/>
     </g>
    </g>
   </g>
   <g id="text_14">
    <g clip-path="url(#pdee19c94b4)">
     <!-- 13 -->
     <g style="fill: #ffffff" transform="translate(59.043754 217.099658) scale(0.09 -0.09)">
      <use xlink:href="#DejaVuSans-Bold-31"/>
      <use xlink:href="#DejaVuSans-Bold-33" x="69.580078"/>
     </g>
    </g>
   </g>
   <g id="text_15">
    <g clip-path="url(#pdee19c94b4)">
     <!-- 14 -->
     <g style="fill: #ffffff" transform="translate(139.228465 82.694757) scale(0.09 -0.09)">
      <use xlink:href="#DejaVuSans-Bold-31"/>
      <use xlink:href="#DejaVuSans-Bold-34" x="69.580078"/>
     </g>
    </g>
   </g>
   <g id="text_16">
    <g clip-path="url(#pdee19c94b4)">
     <!-- 15 -->
     <g style="fill: #ffffff" transform="translate(64.499992 166.887624) scale(0.09 -0.09)">
      <use xlink:href="#DejaVuSans-Bold-31"/>
      <use xlink:href="#DejaVuSans-Bold-35" x="69.580078"/>
     </g>
    </g>
   </g>
   <g id="text_17">
    <g clip-path="url(#pdee19c94b4)">
     <!-- 16 -->
     <g style="fill: #ffffff" transform="translate(135.531015 189.719994) scale(0.09 -0.09)">
      <use xlink:href="#DejaVuSans-Bold-31"/>
      <use xlink:href="#DejaVuSans-Bold-36" x="69.580078"/>
     </g>
    </g>
   </g>
   <g id="text_18">
    <g clip-path="url(#pdee19c94b4)">
     <!-- 17 -->
     <g style="fill: #ffffff" transform="translate(325.350131 346.118134) scale(0.09 -0.09)">
      <use xlink:href="#DejaVuSans-Bold-31"/>
      <use xlink:href="#DejaVuSans-Bold-37" x="69.580078"/>
     </g>
    </g>
   </g>
   <g id="text_19">
    <g clip-path="url(#pdee19c94b4)">
     <!-- 18 -->
     <g style="fill: #ffffff" transform="translate(373.766747 310.46703) scale(0.09 -0.09)">
      <use xlink:href="#DejaVuSans-Bold-31"/>
      <use xlink:href="#DejaVuSans-Bold-38" x="69.580078"/>
     </g>
    </g>
   </g>
   <g id="text_20">
    <g clip-path="url(#pdee19c94b4)">
     <!-- 19 -->
     <g style="fill: #ffffff" transform="translate(428.419064 102.042733) scale(0.09 -0.09)">
      <use xlink:href="#DejaVuSans-Bold-31"/>
      <use xlink:href="#DejaVuSans-Bold-39" x="69.580078"/>
     </g>
    </g>
   </g>
   <g id="text_21">
    <g clip-path="url(#pdee19c94b4)">
     <!-- 20 -->
     <g style="fill: #ffffff" transform="translate(373.51692 83.166269) scale(0.09 -0.09)">
      <use xlink:href="#DejaVuSans-Bold-32"/>
      <use xlink:href="#DejaVuSans-Bold-30" x="69.580078"/>
     </g>
    </g>
   </g>
   <g id="text_22">
    <g clip-path="url(#pdee19c94b4)">
     <!-- 21 -->
     <g style="fill: #ffffff" transform="translate(439.131677 128.455398) scale(0.09 -0.09)">
      <use xlink:href="#DejaVuSans-Bold-32"/>
      <use xlink:href="#DejaVuSans-Bold-31" x="69.580078"/>
     </g>
    </g>
   </g>
   <g id="text_23">
    <g clip-path="url(#pdee19c94b4)">
     <!-- 22 -->
     <g style="fill: #ffffff" transform="translate(441.330161 57.792528) scale(0.09 -0.09)">
      <use xlink:href="#DejaVuSans-Bold-32"/>
      <use xlink:href="#DejaVuSans-Bold-32" x="69.580078"/>
     </g>
    </g>
   </g>
   <g id="text_24">
    <g clip-path="url(#pdee19c94b4)">
     <!-- 23 -->
     <g style="fill: #ffffff" transform="translate(367.940764 154.604336) scale(0.09 -0.09)">
      <use xlink:href="#DejaVuSans-Bold-32"/>
      <use xlink:href="#DejaVuSans-Bold-33" x="69.580078"/>
     </g>
    </g>
   </g>
   <g id="text_25">
    <g clip-path="url(#pdee19c94b4)">
     <!-- 24 -->
     <g style="fill: #ffffff" transform="translate(385.368748 108.891645) scale(0.09 -0.09)">
      <use xlink:href="#DejaVuSans-Bold-32"/>
      <use xlink:href="#DejaVuSans-Bold-34" x="69.580078"/>
     </g>
    </g>
   </g>
   <g id="text_26">
    <g clip-path="url(#pdee19c94b4)">
     <!-- 25 -->
     <g style="fill: #ffffff" transform="translate(224.089952 189.224507) scale(0.09 -0.09)">
      <use xlink:href="#DejaVuSans-Bold-32"/>
      <use xlink:href="#DejaVuSans-Bold-35" x="69.580078"/>
     </g>
    </g>
   </g>
   <g id="text_27">
    <g clip-path="url(#pdee19c94b4)">
     <!-- 26 -->
     <g style="fill: #ffffff" transform="translate(471.539332 487.844259) scale(0.09 -0.09)">
      <use xlink:href="#DejaVuSans-Bold-32"/>
      <use xlink:href="#DejaVuSans-Bold-36" x="69.580078"/>
     </g>
    </g>
   </g>
   <g id="text_28">
    <g clip-path="url(#pdee19c94b4)">
     <!-- 27 -->
     <g style="fill: #ffffff" transform="translate(489.476963 422.694883) scale(0.09 -0.09)">
      <use xlink:href="#DejaVuSans-Bold-32"/>
      <use xlink:href="#DejaVuSans-Bold-37" x="69.580078"/>
     </g>
    </g>
   </g>
   <g id="text_29">
    <g clip-path="url(#pdee19c94b4)">
     <!-- 28 -->
     <g style="fill: #ffffff" transform="translate(314.527594 208.796252) scale(0.09 -0.09)">
      <use xlink:href="#DejaVuSans-Bold-32"/>
      <use xlink:href="#DejaVuSans-Bold-38" x="69.580078"/>
     </g>
    </g>
   </g>
   <g id="text_30">
    <g clip-path="url(#pdee19c94b4)">
     <!-- 29 -->
     <g style="fill: #ffffff" transform="translate(272.686444 236.727345) scale(0.09 -0.09)">
      <use xlink:href="#DejaVuSans-Bold-32"/>
      <use xlink:href="#DejaVuSans-Bold-39" x="69.580078"/>
     </g>
    </g>
   </g>
   <g id="text_31">
    <g clip-path="url(#pdee19c94b4)">
     <!-- 30 -->
     <g style="fill: #ffffff" transform="translate(274.3453 344.264053) scale(0.09 -0.09)">
      <use xlink:href="#DejaVuSans-Bold-33"/>
      <use xlink:href="#DejaVuSans-Bold-30" x="69.580078"/>
     </g>
    </g>
   </g>
   <g id="text_32">
    <g clip-path="url(#pdee19c94b4)">
     <!-- 31 -->
     <g style="fill: #ffffff" transform="translate(393.802932 508.626751) scale(0.09 -0.09)">
      <use xlink:href="#DejaVuSans-Bold-33"/>
      <use xlink:href="#DejaVuSans-Bold-31" x="69.580078"/>
     </g>
    </g>
   </g>
   <g id="text_33">
    <g clip-path="url(#pdee19c94b4)">
     <!-- 32 -->
     <g style="fill: #ffffff" transform="translate(310.920081 404.993203) scale(0.09 -0.09)">
      <use xlink:href="#DejaVuSans-Bold-33"/>
      <use xlink:href="#DejaVuSans-Bold-32" x="69.580078"/>
     </g>
    </g>
   </g>
   <g id="text_34">
    <g clip-path="url(#pdee19c94b4)">
     <!-- 33 -->
     <g style="fill: #ffffff" transform="translate(326.269497 469.69664) scale(0.09 -0.09)">
      <use xlink:href="#DejaVuSans-Bold-33"/>
      <use xlink:href="#DejaVuSans-Bold-33" x="69.580078"/>
     </g>
    </g>
   </g>
   <g id="text_35">
    <g clip-path="url(#pdee19c94b4)">
     <!-- 34 -->
     <g style="fill: #ffffff" transform="translate(263.652673 455.872547) scale(0.09 -0.09)">
      <use xlink:href="#DejaVuSans-Bold-33"/>
      <use xlink:href="#DejaVuSans-Bold-34" x="69.580078"/>
     </g>
    </g>
   </g>
   <g id="legend_1">
    <g id="patch_60">
     <path d="M 522.257812 329.934375 
L 669.8 329.934375 
Q 671.8 329.934375 671.8 327.934375 
L 671.8 240.865625 
Q 671.8 238.865625 669.8 238.865625 
L 522.257812 238.865625 
Q 520.257812 238.865625 520.257812 240.865625 
L 520.257812 327.934375 
Q 520.257812 329.934375 522.257812 329.934375 
z
" style="fill: #ffffff; opacity: 0.8; stroke: #cccccc; stroke-linejoin: miter"/>
    </g>
    <g id="PathCollection_2">
     <path d="M 534.257812 247.839063 
C 534.257812 247.839063 534.257812 247.839063 534.257812 247.839063 
C 534.257812 247.839063 534.257812 247.839063 534.257812 247.839063 
C 534.257812 247.839063 534.257812 247.839063 534.257812 247.839063 
C 534.257812 247.839063 534.257812 247.839063 534.257812 247.839063 
C 534.257812 247.839063 534.257812 247.839063 534.257812 247.839063 
C 534.257812 247.839063 534.257812 247.839063 534.257812 247.839063 
C 534.257812 247.839063 534.257812 247.839063 534.257812 247.839063 
C 534.257812 247.839063 534.257812 247.839063 534.257812 247.839063 
z
" style="fill: #06918a; stroke: #06918a"/>
    </g>
    <g id="text_36">
     <!-- color mappings -->
     <g transform="translate(552.257812 250.464063) scale(0.1 -0.1)">
      <defs>
       <path id="DejaVuSans-63" d="M 3122 3366 
L 3122 2828 
Q 2878 2963 2633 3030 
Q 2388 3097 2138 3097 
Q 1578 3097 1268 2742 
Q 959 2388 959 1747 
Q 959 1106 1268 751 
Q 1578 397 2138 397 
Q 2388 397 2633 464 
Q 2878 531 3122 666 
L 3122 134 
Q 2881 22 2623 -34 
Q 2366 -91 2075 -91 
Q 1284 -91 818 406 
Q 353 903 353 1747 
Q 353 2603 823 3093 
Q 1294 3584 2113 3584 
Q 2378 3584 2631 3529 
Q 2884 3475 3122 3366 
z
" transform="scale(0.015625)"/>
       <path id="DejaVuSans-6f" d="M 1959 3097 
Q 1497 3097 1228 2736 
Q 959 2375 959 1747 
Q 959 1119 1226 758 
Q 1494 397 1959 397 
Q 2419 397 2687 759 
Q 2956 1122 2956 1747 
Q 2956 2369 2687 2733 
Q 2419 3097 1959 3097 
z
M 1959 3584 
Q 2709 3584 3137 3096 
Q 3566 2609 3566 1747 
Q 3566 888 3137 398 
Q 2709 -91 1959 -91 
Q 1206 -91 779 398 
Q 353 888 353 1747 
Q 353 2609 779 3096 
Q 1206 3584 1959 3584 
z
" transform="scale(0.015625)"/>
       <path id="DejaVuSans-6c" d="M 603 4863 
L 1178 4863 
L 1178 0 
L 603 0 
L 603 4863 
z
" transform="scale(0.015625)"/>
       <path id="DejaVuSans-72" d="M 2631 2963 
Q 2534 3019 2420 3045 
Q 2306 3072 2169 3072 
Q 1681 3072 1420 2755 
Q 1159 2438 1159 1844 
L 1159 0 
L 581 0 
L 581 3500 
L 1159 3500 
L 1159 2956 
Q 1341 3275 1631 3429 
Q 1922 3584 2338 3584 
Q 2397 3584 2469 3576 
Q 2541 3569 2628 3553 
L 2631 2963 
z
" transform="scale(0.015625)"/>
       <path id="DejaVuSans-20" transform="scale(0.015625)"/>
       <path id="DejaVuSans-6d" d="M 3328 2828 
Q 3544 3216 3844 3400 
Q 4144 3584 4550 3584 
Q 5097 3584 5394 3201 
Q 5691 2819 5691 2113 
L 5691 0 
L 5113 0 
L 5113 2094 
Q 5113 2597 4934 2840 
Q 4756 3084 4391 3084 
Q 3944 3084 3684 2787 
Q 3425 2491 3425 1978 
L 3425 0 
L 2847 0 
L 2847 2094 
Q 2847 2600 2669 2842 
Q 2491 3084 2119 3084 
Q 1678 3084 1418 2786 
Q 1159 2488 1159 1978 
L 1159 0 
L 581 0 
L 581 3500 
L 1159 3500 
L 1159 2956 
Q 1356 3278 1631 3431 
Q 1906 3584 2284 3584 
Q 2666 3584 2933 3390 
Q 3200 3197 3328 2828 
z
" transform="scale(0.015625)"/>
       <path id="DejaVuSans-61" d="M 2194 1759 
Q 1497 1759 1228 1600 
Q 959 1441 959 1056 
Q 959 750 1161 570 
Q 1363 391 1709 391 
Q 2188 391 2477 730 
Q 2766 1069 2766 1631 
L 2766 1759 
L 2194 1759 
z
M 3341 1997 
L 3341 0 
L 2766 0 
L 2766 531 
Q 2569 213 2275 61 
Q 1981 -91 1556 -91 
Q 1019 -91 701 211 
Q 384 513 384 1019 
Q 384 1609 779 1909 
Q 1175 2209 1959 2209 
L 2766 2209 
L 2766 2266 
Q 2766 2663 2505 2880 
Q 2244 3097 1772 3097 
Q 1472 3097 1187 3025 
Q 903 2953 641 2809 
L 641 3341 
Q 956 3463 1253 3523 
Q 1550 3584 1831 3584 
Q 2591 3584 2966 3190 
Q 3341 2797 3341 1997 
z
" transform="scale(0.015625)"/>
       <path id="DejaVuSans-70" d="M 1159 525 
L 1159 -1331 
L 581 -1331 
L 581 3500 
L 1159 3500 
L 1159 2969 
Q 1341 3281 1617 3432 
Q 1894 3584 2278 3584 
Q 2916 3584 3314 3078 
Q 3713 2572 3713 1747 
Q 3713 922 3314 415 
Q 2916 -91 2278 -91 
Q 1894 -91 1617 61 
Q 1341 213 1159 525 
z
M 3116 1747 
Q 3116 2381 2855 2742 
Q 2594 3103 2138 3103 
Q 1681 3103 1420 2742 
Q 1159 2381 1159 1747 
Q 1159 1113 1420 752 
Q 1681 391 2138 391 
Q 2594 391 2855 752 
Q 3116 1113 3116 1747 
z
" transform="scale(0.015625)"/>
       <path id="DejaVuSans-69" d="M 603 3500 
L 1178 3500 
L 1178 0 
L 603 0 
L 603 3500 
z
M 603 4863 
L 1178 4863 
L 1178 4134 
L 603 4134 
L 603 4863 
z
" transform="scale(0.015625)"/>
       <path id="DejaVuSans-6e" d="M 3513 2113 
L 3513 0 
L 2938 0 
L 2938 2094 
Q 2938 2591 2744 2837 
Q 2550 3084 2163 3084 
Q 1697 3084 1428 2787 
Q 1159 2491 1159 1978 
L 1159 0 
L 581 0 
L 581 3500 
L 1159 3500 
L 1159 2956 
Q 1366 3272 1645 3428 
Q 1925 3584 2291 3584 
Q 2894 3584 3203 3211 
Q 3513 2838 3513 2113 
z
" transform="scale(0.015625)"/>
       <path id="DejaVuSans-67" d="M 2906 1791 
Q 2906 2416 2648 2759 
Q 2391 3103 1925 3103 
Q 1463 3103 1205 2759 
Q 947 2416 947 1791 
Q 947 1169 1205 825 
Q 1463 481 1925 481 
Q 2391 481 2648 825 
Q 2906 1169 2906 1791 
z
M 3481 434 
Q 3481 -459 3084 -895 
Q 2688 -1331 1869 -1331 
Q 1566 -1331 1297 -1286 
Q 1028 -1241 775 -1147 
L 775 -588 
Q 1028 -725 1275 -790 
Q 1522 -856 1778 -856 
Q 2344 -856 2625 -561 
Q 2906 -266 2906 331 
L 2906 616 
Q 2728 306 2450 153 
Q 2172 0 1784 0 
Q 1141 0 747 490 
Q 353 981 353 1791 
Q 353 2603 747 3093 
Q 1141 3584 1784 3584 
Q 2172 3584 2450 3431 
Q 2728 3278 2906 2969 
L 2906 3500 
L 3481 3500 
L 3481 434 
z
" transform="scale(0.015625)"/>
       <path id="DejaVuSans-73" d="M 2834 3397 
L 2834 2853 
Q 2591 2978 2328 3040 
Q 2066 3103 1784 3103 
Q 1356 3103 1142 2972 
Q 928 2841 928 2578 
Q 928 2378 1081 2264 
Q 1234 2150 1697 2047 
L 1894 2003 
Q 2506 1872 2764 1633 
Q 3022 1394 3022 966 
Q 3022 478 2636 193 
Q 2250 -91 1575 -91 
Q 1294 -91 989 -36 
Q 684 19 347 128 
L 347 722 
Q 666 556 975 473 
Q 1284 391 1588 391 
Q 1994 391 2212 530 
Q 2431 669 2431 922 
Q 2431 1156 2273 1281 
Q 2116 1406 1581 1522 
L 1381 1569 
Q 847 1681 609 1914 
Q 372 2147 372 2553 
Q 372 3047 722 3315 
Q 1072 3584 1716 3584 
Q 2034 3584 2315 3537 
Q 2597 3491 2834 3397 
z
" transform="scale(0.015625)"/>
      </defs>
      <use xlink:href="#DejaVuSans-63"/>
      <use xlink:href="#DejaVuSans-6f" x="54.980469"/>
      <use xlink:href="#DejaVuSans-6c" x="116.162109"/>
      <use xlink:href="#DejaVuSans-6f" x="143.945312"/>
      <use xlink:href="#DejaVuSans-72" x="205.126953"/>
      <use xlink:href="#DejaVuSans-20" x="246.240234"/>
      <use xlink:href="#DejaVuSans-6d" x="278.027344"/>
      <use xlink:href="#DejaVuSans-61" x="375.439453"/>
      <use xlink:href="#DejaVuSans-70" x="436.71875"/>
      <use xlink:href="#DejaVuSans-70" x="500.195312"/>
      <use xlink:href="#DejaVuSans-69" x="563.671875"/>
      <use xlink:href="#DejaVuSans-6e" x="591.455078"/>
      <use xlink:href="#DejaVuSans-67" x="654.833984"/>
      <use xlink:href="#DejaVuSans-73" x="718.310547"/>
     </g>
    </g>
    <g id="patch_61">
     <path d="M 524.257812 265.142188 
L 544.257812 265.142188 
L 544.257812 258.142188 
L 524.257812 258.142188 
z
" style="fill: #ff0000; stroke: #ff0000; stroke-linejoin: miter"/>
    </g>
    <g id="text_37">
     <!-- All groups -->
     <g transform="translate(552.257812 265.142188) scale(0.1 -0.1)">
      <defs>
       <path id="DejaVuSans-41" d="M 2188 4044 
L 1331 1722 
L 3047 1722 
L 2188 4044 
z
M 1831 4666 
L 2547 4666 
L 4325 0 
L 3669 0 
L 3244 1197 
L 1141 1197 
L 716 0 
L 50 0 
L 1831 4666 
z
" transform="scale(0.015625)"/>
       <path id="DejaVuSans-75" d="M 544 1381 
L 544 3500 
L 1119 3500 
L 1119 1403 
Q 1119 906 1312 657 
Q 1506 409 1894 409 
Q 2359 409 2629 706 
Q 2900 1003 2900 1516 
L 2900 3500 
L 3475 3500 
L 3475 0 
L 2900 0 
L 2900 538 
Q 2691 219 2414 64 
Q 2138 -91 1772 -91 
Q 1169 -91 856 284 
Q 544 659 544 1381 
z
M 1991 3584 
L 1991 3584 
z
" transform="scale(0.015625)"/>
      </defs>
      <use xlink:href="#DejaVuSans-41"/>
      <use xlink:href="#DejaVuSans-6c" x="68.408203"/>
      <use xlink:href="#DejaVuSans-6c" x="96.191406"/>
      <use xlink:href="#DejaVuSans-20" x="123.974609"/>
      <use xlink:href="#DejaVuSans-67" x="155.761719"/>
      <use xlink:href="#DejaVuSans-72" x="219.238281"/>
      <use xlink:href="#DejaVuSans-6f" x="258.101562"/>
      <use xlink:href="#DejaVuSans-75" x="319.283203"/>
      <use xlink:href="#DejaVuSans-70" x="382.662109"/>
      <use xlink:href="#DejaVuSans-73" x="446.138672"/>
     </g>
    </g>
    <g id="patch_62">
     <path d="M 524.257812 279.820313 
L 544.257812 279.820313 
L 544.257812 272.820313 
L 524.257812 272.820313 
z
" style="fill: #228b22; stroke: #228b22; stroke-linejoin: miter"/>
    </g>
    <g id="text_38">
     <!-- Motors and Mechanical -->
     <g transform="translate(552.257812 279.820313) scale(0.1 -0.1)">
      <defs>
       <path id="DejaVuSans-4d" d="M 628 4666 
L 1569 4666 
L 2759 1491 
L 3956 4666 
L 4897 4666 
L 4897 0 
L 4281 0 
L 4281 4097 
L 3078 897 
L 2444 897 
L 1241 4097 
L 1241 0 
L 628 0 
L 628 4666 
z
" transform="scale(0.015625)"/>
       <path id="DejaVuSans-74" d="M 1172 4494 
L 1172 3500 
L 2356 3500 
L 2356 3053 
L 1172 3053 
L 1172 1153 
Q 1172 725 1289 603 
Q 1406 481 1766 481 
L 2356 481 
L 2356 0 
L 1766 0 
Q 1100 0 847 248 
Q 594 497 594 1153 
L 594 3053 
L 172 3053 
L 172 3500 
L 594 3500 
L 594 4494 
L 1172 4494 
z
" transform="scale(0.015625)"/>
       <path id="DejaVuSans-64" d="M 2906 2969 
L 2906 4863 
L 3481 4863 
L 3481 0 
L 2906 0 
L 2906 525 
Q 2725 213 2448 61 
Q 2172 -91 1784 -91 
Q 1150 -91 751 415 
Q 353 922 353 1747 
Q 353 2572 751 3078 
Q 1150 3584 1784 3584 
Q 2172 3584 2448 3432 
Q 2725 3281 2906 2969 
z
M 947 1747 
Q 947 1113 1208 752 
Q 1469 391 1925 391 
Q 2381 391 2643 752 
Q 2906 1113 2906 1747 
Q 2906 2381 2643 2742 
Q 2381 3103 1925 3103 
Q 1469 3103 1208 2742 
Q 947 2381 947 1747 
z
" transform="scale(0.015625)"/>
       <path id="DejaVuSans-65" d="M 3597 1894 
L 3597 1613 
L 953 1613 
Q 991 1019 1311 708 
Q 1631 397 2203 397 
Q 2534 397 2845 478 
Q 3156 559 3463 722 
L 3463 178 
Q 3153 47 2828 -22 
Q 2503 -91 2169 -91 
Q 1331 -91 842 396 
Q 353 884 353 1716 
Q 353 2575 817 3079 
Q 1281 3584 2069 3584 
Q 2775 3584 3186 3129 
Q 3597 2675 3597 1894 
z
M 3022 2063 
Q 3016 2534 2758 2815 
Q 2500 3097 2075 3097 
Q 1594 3097 1305 2825 
Q 1016 2553 972 2059 
L 3022 2063 
z
" transform="scale(0.015625)"/>
       <path id="DejaVuSans-68" d="M 3513 2113 
L 3513 0 
L 2938 0 
L 2938 2094 
Q 2938 2591 2744 2837 
Q 2550 3084 2163 3084 
Q 1697 3084 1428 2787 
Q 1159 2491 1159 1978 
L 1159 0 
L 581 0 
L 581 4863 
L 1159 4863 
L 1159 2956 
Q 1366 3272 1645 3428 
Q 1925 3584 2291 3584 
Q 2894 3584 3203 3211 
Q 3513 2838 3513 2113 
z
" transform="scale(0.015625)"/>
      </defs>
      <use xlink:href="#DejaVuSans-4d"/>
      <use xlink:href="#DejaVuSans-6f" x="86.279297"/>
      <use xlink:href="#DejaVuSans-74" x="147.460938"/>
      <use xlink:href="#DejaVuSans-6f" x="186.669922"/>
      <use xlink:href="#DejaVuSans-72" x="247.851562"/>
      <use xlink:href="#DejaVuSans-73" x="288.964844"/>
      <use xlink:href="#DejaVuSans-20" x="341.064453"/>
      <use xlink:href="#DejaVuSans-61" x="372.851562"/>
      <use xlink:href="#DejaVuSans-6e" x="434.130859"/>
      <use xlink:href="#DejaVuSans-64" x="497.509766"/>
      <use xlink:href="#DejaVuSans-20" x="560.986328"/>
      <use xlink:href="#DejaVuSans-4d" x="592.773438"/>
      <use xlink:href="#DejaVuSans-65" x="679.052734"/>
      <use xlink:href="#DejaVuSans-63" x="740.576172"/>
      <use xlink:href="#DejaVuSans-68" x="795.556641"/>
      <use xlink:href="#DejaVuSans-61" x="858.935547"/>
      <use xlink:href="#DejaVuSans-6e" x="920.214844"/>
      <use xlink:href="#DejaVuSans-69" x="983.59375"/>
      <use xlink:href="#DejaVuSans-63" x="1011.376953"/>
      <use xlink:href="#DejaVuSans-61" x="1066.357422"/>
      <use xlink:href="#DejaVuSans-6c" x="1127.636719"/>
     </g>
    </g>
    <g id="patch_63">
     <path d="M 524.257812 294.498438 
L 544.257812 294.498438 
L 544.257812 287.498438 
L 524.257812 287.498438 
z
" style="fill: #90ee90; stroke: #90ee90; stroke-linejoin: miter"/>
    </g>
    <g id="text_39">
     <!-- Motors only -->
     <g transform="translate(552.257812 294.498438) scale(0.1 -0.1)">
      <defs>
       <path id="DejaVuSans-79" d="M 2059 -325 
Q 1816 -950 1584 -1140 
Q 1353 -1331 966 -1331 
L 506 -1331 
L 506 -850 
L 844 -850 
Q 1081 -850 1212 -737 
Q 1344 -625 1503 -206 
L 1606 56 
L 191 3500 
L 800 3500 
L 1894 763 
L 2988 3500 
L 3597 3500 
L 2059 -325 
z
" transform="scale(0.015625)"/>
      </defs>
      <use xlink:href="#DejaVuSans-4d"/>
      <use xlink:href="#DejaVuSans-6f" x="86.279297"/>
      <use xlink:href="#DejaVuSans-74" x="147.460938"/>
      <use xlink:href="#DejaVuSans-6f" x="186.669922"/>
      <use xlink:href="#DejaVuSans-72" x="247.851562"/>
      <use xlink:href="#DejaVuSans-73" x="288.964844"/>
      <use xlink:href="#DejaVuSans-20" x="341.064453"/>
      <use xlink:href="#DejaVuSans-6f" x="372.851562"/>
      <use xlink:href="#DejaVuSans-6e" x="434.033203"/>
      <use xlink:href="#DejaVuSans-6c" x="497.412109"/>
      <use xlink:href="#DejaVuSans-79" x="525.195312"/>
     </g>
    </g>
    <g id="patch_64">
     <path d="M 524.257812 309.176563 
L 544.257812 309.176563 
L 544.257812 302.176563 
L 524.257812 302.176563 
z
" style="fill: #20b2aa; stroke: #20b2aa; stroke-linejoin: miter"/>
    </g>
    <g id="text_40">
     <!-- Mechanical only -->
     <g transform="translate(552.257812 309.176563) scale(0.1 -0.1)">
      <use xlink:href="#DejaVuSans-4d"/>
      <use xlink:href="#DejaVuSans-65" x="86.279297"/>
      <use xlink:href="#DejaVuSans-63" x="147.802734"/>
      <use xlink:href="#DejaVuSans-68" x="202.783203"/>
      <use xlink:href="#DejaVuSans-61" x="266.162109"/>
      <use xlink:href="#DejaVuSans-6e" x="327.441406"/>
      <use xlink:href="#DejaVuSans-69" x="390.820312"/>
      <use xlink:href="#DejaVuSans-63" x="418.603516"/>
      <use xlink:href="#DejaVuSans-61" x="473.583984"/>
      <use xlink:href="#DejaVuSans-6c" x="534.863281"/>
      <use xlink:href="#DejaVuSans-20" x="562.646484"/>
      <use xlink:href="#DejaVuSans-6f" x="594.433594"/>
      <use xlink:href="#DejaVuSans-6e" x="655.615234"/>
      <use xlink:href="#DejaVuSans-6c" x="718.994141"/>
      <use xlink:href="#DejaVuSans-79" x="746.777344"/>
     </g>
    </g>
    <g id="patch_65">
     <path d="M 524.257812 323.854688 
L 544.257812 323.854688 
L 544.257812 316.854688 
L 524.257812 316.854688 
z
" style="fill: #ffd700; stroke: #ffd700; stroke-linejoin: miter"/>
    </g>
    <g id="text_41">
     <!-- Process -->
     <g transform="translate(552.257812 323.854688) scale(0.1 -0.1)">
      <defs>
       <path id="DejaVuSans-50" d="M 1259 4147 
L 1259 2394 
L 2053 2394 
Q 2494 2394 2734 2622 
Q 2975 2850 2975 3272 
Q 2975 3691 2734 3919 
Q 2494 4147 2053 4147 
L 1259 4147 
z
M 628 4666 
L 2053 4666 
Q 2838 4666 3239 4311 
Q 3641 3956 3641 3272 
Q 3641 2581 3239 2228 
Q 2838 1875 2053 1875 
L 1259 1875 
L 1259 0 
L 628 0 
L 628 4666 
z
" transform="scale(0.015625)"/>
      </defs>
      <use xlink:href="#DejaVuSans-50"/>
      <use xlink:href="#DejaVuSans-72" x="58.552734"/>
      <use xlink:href="#DejaVuSans-6f" x="97.416016"/>
      <use xlink:href="#DejaVuSans-63" x="158.597656"/>
      <use xlink:href="#DejaVuSans-65" x="213.578125"/>
      <use xlink:href="#DejaVuSans-73" x="275.101562"/>
      <use xlink:href="#DejaVuSans-73" x="327.201172"/>
     </g>
    </g>
   </g>
  </g>
 </g>
 <defs>
  <clipPath id="pdee19c94b4">
   <rect x="7.2" y="7.2" width="669.6" height="554.4"/>
  </clipPath>
 </defs>
</svg>
